<svg width="10" height="16" viewBox="0 0 10 16" fill="none" xmlns="http://www.w3.org/2000/svg">
<path d="M8.13586 1.13811C8.50993 0.810797 9.07852 0.848703 9.40583 1.22278C9.73315 1.59685 9.69524 2.16543 9.32117 2.49275L8.13586 1.13811ZM1.45579 8.17907L0.863134 8.85639C0.667821 8.68549 0.555788 8.43859 0.555788 8.17907C0.555788 7.91954 0.667821 7.67265 0.863134 7.50175L1.45579 8.17907ZM9.32117 13.8654C9.69524 14.1927 9.73315 14.7613 9.40583 15.1354C9.07852 15.5094 8.50993 15.5473 8.13586 15.22L9.32117 13.8654ZM9.32117 2.49275L2.04844 8.85639L0.863134 7.50175L8.13586 1.13811L9.32117 2.49275ZM2.04844 7.50175L9.32117 13.8654L8.13586 15.22L0.863134 8.85639L2.04844 7.50175Z" fill="white"/>
</svg>
