<svg width="20" height="20" viewBox="0 0 20 20" fill="none" xmlns="http://www.w3.org/2000/svg">
<path fill-rule="evenodd" clip-rule="evenodd" d="M10 0C4.47715 0 0 4.47715 0 10C0 15.5228 4.47715 20 10 20C15.5228 20 20 15.5228 20 10C20 4.47715 15.5228 0 10 0ZM14.9266 8.15079C15.286 7.73147 15.2374 7.10017 14.8181 6.74074C14.3988 6.38132 13.7675 6.42988 13.4081 6.84921L9.11084 11.8626L6.54109 9.29289C6.15057 8.90237 5.5174 8.90237 5.12688 9.29289C4.73635 9.68342 4.73635 10.3166 5.12688 10.7071L8.46021 14.0404C8.65717 14.2374 8.92735 14.3433 9.20569 14.3326C9.48403 14.3219 9.7453 14.1956 9.92657 13.9841L14.9266 8.15079Z" fill="#2E4341"/>
</svg>
