
<svg width="38" height="38" viewBox="0 0 38 38" fill="none" xmlns="http://www.w3.org/2000/svg">
<rect width="38" height="38" rx="19" fill="#050C09"/>
<path d="M20.495 17.3603C21.3276 18.1929 21.3276 19.5428 20.495 20.3754C19.6624 21.208 18.3125 21.208 17.4799 20.3754C16.6473 19.5428 16.6473 18.1929 17.4799 17.3603C18.3125 16.5277 19.6624 16.5277 20.495 17.3603" stroke="#D3DED5" stroke-width="1.5" stroke-linecap="round" stroke-linejoin="round"/>
<path d="M9 25.5H11.75" stroke="#D3DED5" stroke-width="1.5" stroke-linecap="round" stroke-linejoin="round"/>
<path d="M9 19C9 13.477 13.477 9 19 9C24.523 9 29 13.477 29 19" stroke="#E3F707" stroke-width="1.5" stroke-linecap="round" stroke-linejoin="round"/>
<path d="M19 9V11" stroke="#E3F707" stroke-width="1.5" stroke-linecap="round" stroke-linejoin="round"/>
<path d="M26.0703 11.9302L25.0703 12.9302" stroke="#E3F707" stroke-width="1.5" stroke-linecap="round" stroke-linejoin="round"/>
<path d="M11.9297 11.9302L12.9297 12.9302" stroke="#E3F707" stroke-width="1.5" stroke-linecap="round" stroke-linejoin="round"/>
<path d="M9 19H11" stroke="#E3F707" stroke-width="1.5" stroke-linecap="round" stroke-linejoin="round"/>
<path d="M29 19H27" stroke="#E3F707" stroke-width="1.5" stroke-linecap="round" stroke-linejoin="round"/>
<path d="M22.9902 14.8599L20.4902 17.3599" stroke="#D3DED5" stroke-width="1.5" stroke-linecap="round" stroke-linejoin="round"/>
<path d="M28.9996 23.0039H25.4316V27.9999V25.4999" stroke="#D3DED5" stroke-width="1.5" stroke-linecap="round" stroke-linejoin="round"/>
<path d="M12.568 27.9999H9V23.0039H12.568" stroke="#D3DED5" stroke-width="1.5" stroke-linecap="round" stroke-linejoin="round"/>
<path d="M25.4297 25.5H28.1797" stroke="#D3DED5" stroke-width="1.5" stroke-linecap="round" stroke-linejoin="round"/>
</svg>
