<svg width="83" height="78" viewBox="0 0 83 78" fill="none" xmlns="http://www.w3.org/2000/svg">
<path d="M0.252 7.698V5.99H8.302V7.698H5.292V16H3.262V7.698H0.252ZM11.3786 5.99V9.756H11.4206C11.6913 9.364 11.9853 9.07933 12.3026 8.902C12.6293 8.71533 13.0306 8.622 13.5066 8.622C14.2439 8.622 14.8413 8.874 15.2986 9.378C15.7559 9.87267 15.9846 10.5167 15.9846 11.31V16H14.0806V11.59C14.0806 11.198 13.9686 10.8807 13.7446 10.638C13.5299 10.3953 13.2266 10.274 12.8346 10.274C12.4146 10.274 12.0646 10.428 11.7846 10.736C11.5139 11.044 11.3786 11.4407 11.3786 11.926V16H9.47459V5.99H11.3786ZM20.8322 16.21C19.6749 16.21 18.7649 15.8553 18.1022 15.146C17.4395 14.4273 17.1082 13.5127 17.1082 12.402C17.1082 11.3287 17.4395 10.4327 18.1022 9.714C18.7649 8.986 19.6142 8.622 20.6502 8.622C21.7795 8.622 22.6522 9.014 23.2682 9.798C23.8842 10.582 24.1922 11.632 24.1922 12.948H18.9842C19.0589 13.5173 19.2502 13.9607 19.5582 14.278C19.8662 14.586 20.2862 14.74 20.8182 14.74C21.5182 14.74 21.9802 14.446 22.2042 13.858H24.0802C23.9402 14.53 23.5855 15.09 23.0162 15.538C22.4469 15.986 21.7189 16.21 20.8322 16.21ZM20.6782 10.092C19.7542 10.092 19.1989 10.6053 19.0122 11.632H22.2042C22.1762 11.1747 22.0222 10.806 21.7422 10.526C21.4622 10.2367 21.1075 10.092 20.6782 10.092ZM35.515 16L35.445 14.656H35.417C34.801 15.692 33.863 16.21 32.603 16.21C31.1377 16.21 29.9663 15.7247 29.089 14.754C28.221 13.7833 27.787 12.542 27.787 11.03C27.787 9.31267 28.333 7.95 29.425 6.942C30.265 6.17667 31.3383 5.794 32.645 5.794C33.8677 5.794 34.843 6.09733 35.571 6.704C36.3083 7.31067 36.761 8.12267 36.929 9.14H34.941C34.8197 8.636 34.5677 8.23467 34.185 7.936C33.8023 7.628 33.303 7.474 32.687 7.474C31.7817 7.474 31.0817 7.80533 30.587 8.468C30.1017 9.13067 29.859 9.98467 29.859 11.03C29.859 12.066 30.111 12.9153 30.615 13.578C31.1283 14.2407 31.8097 14.572 32.659 14.572C33.4057 14.572 34.0217 14.3433 34.507 13.886C34.9923 13.4193 35.235 12.892 35.235 12.304V12.248H32.827V10.68H37.041V16H35.515ZM41.9802 16.21C40.8229 16.21 39.9129 15.8553 39.2502 15.146C38.5876 14.4273 38.2562 13.5127 38.2562 12.402C38.2562 11.3287 38.5876 10.4327 39.2502 9.714C39.9129 8.986 40.7622 8.622 41.7982 8.622C42.9276 8.622 43.8002 9.014 44.4162 9.798C45.0322 10.582 45.3402 11.632 45.3402 12.948H40.1322C40.2069 13.5173 40.3982 13.9607 40.7062 14.278C41.0142 14.586 41.4342 14.74 41.9662 14.74C42.6662 14.74 43.1282 14.446 43.3522 13.858H45.2282C45.0882 14.53 44.7336 15.09 44.1642 15.538C43.5949 15.986 42.8669 16.21 41.9802 16.21ZM41.8262 10.092C40.9022 10.092 40.3469 10.6053 40.1602 11.632H43.3522C43.3242 11.1747 43.1702 10.806 42.8902 10.526C42.6102 10.2367 42.2556 10.092 41.8262 10.092ZM51.0435 16C50.9501 15.8787 50.8755 15.6127 50.8195 15.202H50.7915C50.5861 15.51 50.3248 15.748 50.0075 15.916C49.6901 16.084 49.2468 16.168 48.6775 16.168C47.9215 16.168 47.3148 15.9767 46.8575 15.594C46.4001 15.2113 46.1715 14.67 46.1715 13.97C46.1715 13.242 46.4235 12.71 46.9275 12.374C47.4315 12.0287 48.1408 11.7907 49.0555 11.66C49.7275 11.5667 50.1848 11.4733 50.4275 11.38C50.6701 11.2773 50.7915 11.1 50.7915 10.848C50.7915 10.5867 50.6888 10.3813 50.4835 10.232C50.2781 10.0733 49.9795 9.994 49.5875 9.994C48.7195 9.994 48.2575 10.33 48.2015 11.002H46.5075C46.5355 10.3207 46.8108 9.756 47.3335 9.308C47.8561 8.86 48.6121 8.636 49.6015 8.636C51.6175 8.636 52.6255 9.518 52.6255 11.282V14.936C52.6255 15.4773 52.7095 15.8087 52.8775 15.93V16H51.0435ZM49.1395 14.838C49.6621 14.838 50.0728 14.7027 50.3715 14.432C50.6795 14.1613 50.8335 13.8393 50.8335 13.466V12.388C50.6281 12.5093 50.1848 12.6493 49.5035 12.808C48.9621 12.9293 48.5795 13.0693 48.3555 13.228C48.1315 13.3773 48.0195 13.6107 48.0195 13.928C48.0195 14.5347 48.3928 14.838 49.1395 14.838ZM55.9699 8.818V9.966H56.0119C56.2359 9.546 56.4833 9.238 56.7539 9.042C57.0246 8.83667 57.3653 8.734 57.7759 8.734C57.9719 8.734 58.1213 8.75267 58.2239 8.79V10.456H58.1819C57.5379 10.3907 57.0199 10.5307 56.6279 10.876C56.2359 11.2213 56.0399 11.7627 56.0399 12.5V16H54.1359V8.818H55.9699ZM63.3481 16.21C62.3775 16.21 61.6635 15.8413 61.2061 15.104H61.1781V16H59.3441V5.99H61.2481V9.686H61.2901C61.7475 8.97667 62.4148 8.622 63.2921 8.622C64.1975 8.622 64.9395 8.97667 65.5181 9.686C66.0968 10.386 66.3861 11.296 66.3861 12.416C66.3861 13.5733 66.1061 14.4973 65.5461 15.188C64.9861 15.8693 64.2535 16.21 63.3481 16.21ZM62.9281 14.614C63.4135 14.614 63.7868 14.4227 64.0481 14.04C64.3188 13.6573 64.4541 13.116 64.4541 12.416C64.4541 11.7253 64.3141 11.1793 64.0341 10.778C63.7635 10.3673 63.3715 10.162 62.8581 10.162C61.7568 10.162 61.2061 10.9273 61.2061 12.458C61.2061 13.1207 61.3601 13.648 61.6681 14.04C61.9761 14.4227 62.3961 14.614 62.9281 14.614ZM73.6778 15.132C72.9778 15.8507 72.0771 16.21 70.9758 16.21C69.8745 16.21 68.9738 15.8507 68.2738 15.132C67.5738 14.404 67.2238 13.4987 67.2238 12.416C67.2238 11.3333 67.5738 10.4327 68.2738 9.714C68.9738 8.986 69.8745 8.622 70.9758 8.622C72.0771 8.622 72.9778 8.986 73.6778 9.714C74.3778 10.4327 74.7278 11.3333 74.7278 12.416C74.7278 13.4987 74.3778 14.404 73.6778 15.132ZM70.9758 14.754C71.5451 14.754 71.9885 14.544 72.3058 14.124C72.6325 13.6947 72.7958 13.1253 72.7958 12.416C72.7958 11.7067 72.6325 11.1373 72.3058 10.708C71.9885 10.2787 71.5451 10.064 70.9758 10.064C70.3971 10.064 69.9491 10.2787 69.6318 10.708C69.3145 11.128 69.1558 11.6973 69.1558 12.416C69.1558 13.1253 69.3145 13.6947 69.6318 14.124C69.9491 14.544 70.3971 14.754 70.9758 14.754ZM74.8483 16L77.4663 12.192L75.1283 8.818H77.2983L78.5723 10.876H78.6003L79.8043 8.818H81.7783L79.5523 12.178L82.1143 16H79.8463L78.5163 13.62H78.4883L76.9343 16H74.8483Z" fill="#050C09"/>
<rect x="16" y="24" width="51" height="20" rx="2" fill="#181818"/>
<path fill-rule="evenodd" clip-rule="evenodd" d="M32 38.3625L27.1492 40.6667L28.1567 35.5667L24.5 31.8267L29.6492 31.1842L32 26.5L34.3508 31.1842L39.5 31.8267L35.8433 35.5667L36.8508 40.6667L32 38.3625Z" fill="#E3F707"/>
<path d="M46.9004 38H48.582V36.4473H49.6953V35.0352H48.582V29.5449H46.0859L42.6934 34.9707V36.4473H46.9004V38ZM44.2344 35.082V35.0352L46.8945 30.8223H46.9355V35.082H44.2344ZM51.4883 38.0996C52.0156 38.0996 52.4375 37.6777 52.4375 37.1504C52.4375 36.6172 52.0156 36.2012 51.4883 36.2012C50.9551 36.2012 50.5391 36.6172 50.5391 37.1504C50.5391 37.6777 50.9551 38.0996 51.4883 38.0996ZM56.832 38.1465C58.8477 38.1465 60.2363 37.1445 60.2363 35.6914V35.6797C60.2363 34.584 59.4219 33.7754 58.291 33.5527V33.5176C59.2637 33.2773 59.9316 32.5684 59.9316 31.666V31.6543C59.9316 30.3477 58.6543 29.3984 56.832 29.3984C55.0039 29.3984 53.7324 30.3477 53.7324 31.6543V31.666C53.7324 32.5684 54.3945 33.2773 55.373 33.5176V33.5527C54.2363 33.7754 53.4219 34.584 53.4219 35.6797V35.6914C53.4219 37.1445 54.8164 38.1465 56.832 38.1465ZM56.832 32.9844C56.0352 32.9844 55.4785 32.5098 55.4785 31.8301V31.8184C55.4785 31.1445 56.041 30.6758 56.832 30.6758C57.623 30.6758 58.1797 31.1445 58.1797 31.8184V31.8301C58.1797 32.5098 57.6289 32.9844 56.832 32.9844ZM56.832 36.8574C55.9062 36.8574 55.2559 36.3184 55.2559 35.5742V35.5625C55.2559 34.8125 55.9004 34.2676 56.832 34.2676C57.7637 34.2676 58.4023 34.8125 58.4023 35.5625V35.5742C58.4023 36.3184 57.752 36.8574 56.832 36.8574Z" fill="white"/>
<rect x="16.5" y="24.5" width="50" height="19" rx="1.5" stroke="#DCDCDC" stroke-opacity="0.2"/>
<rect x="28.5" y="52" width="26" height="26" rx="13" fill="#050C09" fill-opacity="0.2"/>
<circle cx="41.5" cy="65" r="7" fill="#050C09"/>
</svg>
