<svg width="42" height="28" viewBox="0 0 42 28" fill="none" xmlns="http://www.w3.org/2000/svg">
<path d="M20.9992 0.686523C9.50938 0.686523 0.193359 6.64686 0.193359 13.9972C0.193359 21.3503 9.50938 27.3133 20.9992 27.3133C32.4891 27.3133 41.8051 21.353 41.8051 13.9972C41.8051 6.64145 32.4891 0.686523 20.9992 0.686523ZM20.9992 21.5991C19.2902 21.5991 17.8957 18.2701 17.8082 14.0811C18.8363 14.1703 19.9055 14.219 20.9992 14.219C22.093 14.219 23.1621 14.1703 24.1902 14.0811C24.1027 18.2674 22.7082 21.5991 20.9992 21.5991ZM18.0188 10.7547C18.4836 7.79349 19.643 5.69223 20.9992 5.69223C22.3555 5.69223 23.5148 7.79349 23.9797 10.7547C23.0254 10.8386 22.0301 10.8845 20.9992 10.8845C19.9684 10.8845 18.973 10.8386 18.0188 10.7547ZM20.9992 2.612C18.768 2.612 16.8648 5.91669 16.1621 10.5303C11.932 9.87853 8.97891 8.39115 8.97891 6.66309C8.97891 4.33196 14.3602 2.44163 20.9992 2.44163C27.6383 2.44163 33.0195 4.33196 33.0195 6.66309C33.0195 8.39115 30.0664 9.87853 25.8363 10.5303C25.1336 5.91669 23.2305 2.612 20.9992 2.612ZM3.17656 13.4996C3.17656 11.2442 4.0543 9.12673 5.58281 7.30942C5.56641 7.43652 5.55547 7.56633 5.55547 7.69614C5.55547 10.5384 9.86484 12.9615 15.8777 13.8539C15.8723 14.0594 15.8723 14.2677 15.8723 14.4759C15.8723 19.7737 17.3734 24.2601 19.4488 25.7827C10.3297 25.2391 3.17656 19.9467 3.17656 13.4996ZM22.5496 25.7827C24.625 24.2601 26.1262 19.7737 26.1262 14.4759C26.1262 14.2649 26.1234 14.0594 26.1207 13.8539C32.1309 12.9615 36.443 10.5411 36.443 7.69614C36.443 7.56633 36.432 7.43652 36.4156 7.30942C37.9441 9.13214 38.8219 11.2442 38.8219 13.4996C38.8219 19.9467 31.6688 25.2391 22.5496 25.7827Z" fill="#282830"/>
</svg>
