<svg width="86" height="19" viewBox="0 0 86 19" fill="none" xmlns="http://www.w3.org/2000/svg">
<path d="M0.976 18L7.144 0.839999H11.512L17.704 18H13.24L12.232 14.904H6.232L5.248 18H0.976ZM7.216 11.856H11.248L9.952 7.704L9.28 5.28H9.232C8.96 6.304 8.728 7.112 8.536 7.704L7.216 11.856ZM22.4256 18.36C21.0336 18.36 19.9616 17.952 19.2096 17.136C18.4736 16.304 18.1056 15.184 18.1056 13.776V5.712H21.9936V12.96C21.9936 14.352 22.6096 15.048 23.8416 15.048C24.5136 15.048 25.0416 14.824 25.4256 14.376C25.8096 13.912 26.0016 13.312 26.0016 12.576V5.712H29.9136V18H26.1696V16.488H26.0976C25.1696 17.736 23.9456 18.36 22.4256 18.36ZM36.6674 18.144C35.4194 18.144 34.4514 17.896 33.7634 17.4C33.0914 16.888 32.7554 16.008 32.7554 14.76V8.16H31.1234V5.712H32.7554V1.824H36.5714V5.712H38.8034V8.16H36.5714V13.92C36.5714 14.368 36.6834 14.68 36.9074 14.856C37.1474 15.032 37.4914 15.12 37.9394 15.12C38.0674 15.12 38.2354 15.12 38.4434 15.12C38.6514 15.104 38.7714 15.096 38.8034 15.096V17.952C38.3554 18.08 37.6434 18.144 36.6674 18.144ZM44.1723 14.592C44.6203 15.264 45.2603 15.6 46.0923 15.6C46.9243 15.6 47.5643 15.264 48.0123 14.592C48.4763 13.92 48.7083 13.016 48.7083 11.88C48.7083 10.744 48.4763 9.84 48.0123 9.168C47.5643 8.48 46.9243 8.136 46.0923 8.136C45.2603 8.136 44.6203 8.472 44.1723 9.144C43.7243 9.816 43.5003 10.728 43.5003 11.88C43.5003 13.016 43.7243 13.92 44.1723 14.592ZM50.8443 16.536C49.6443 17.768 48.0683 18.384 46.1163 18.384C44.1643 18.384 42.5803 17.768 41.3643 16.536C40.1483 15.304 39.5403 13.752 39.5403 11.88C39.5403 10.008 40.1483 8.456 41.3643 7.224C42.5803 5.992 44.1643 5.376 46.1163 5.376C48.0683 5.376 49.6443 5.992 50.8443 7.224C52.0603 8.456 52.6683 10.008 52.6683 11.88C52.6683 13.752 52.0603 15.304 50.8443 16.536ZM54.6683 18V8.208H53.0843V5.712H54.6683V4.824C54.6683 3.592 55.0043 2.64 55.6763 1.968C56.6523 1.008 58.3883 0.655999 60.8843 0.912V3.672C60.0523 3.64 59.4603 3.712 59.1083 3.888C58.7563 4.064 58.5803 4.472 58.5803 5.112V5.712H60.8843V8.208H58.5803V18H54.6683ZM62.1235 18V5.712H66.0355V18H62.1235ZM62.1235 4.008V0.839999H66.0355V4.008H62.1235ZM67.1446 18L71.4166 11.544L67.5526 5.712H72.0166L73.8406 8.88H73.8886L75.6166 5.712H79.7206L76.0726 11.496L80.2486 18H75.7126L73.6966 14.328H73.6486L71.4166 18H67.1446Z" fill="white"/>
<path d="M81.1743 18V13.968H85.2783V18H81.1743Z" fill="#E3F707"/>
</svg>
