<svg width="68" height="68" viewBox="0 0 68 68" fill="none" xmlns="http://www.w3.org/2000/svg">
<g filter="url(#filter0_d_2_5907)">
<path fill-rule="evenodd" clip-rule="evenodd" d="M34.0003 54.5418C34.0003 54.5418 51.7087 42.5002 51.7087 31.1668C51.7087 21.2502 43.3891 13.4585 34.0003 13.4585C24.6115 13.4585 16.292 21.2502 16.292 31.1668C16.292 42.5002 34.0003 54.5418 34.0003 54.5418ZM40.375 31.1665C40.375 34.6873 37.5208 37.5415 34 37.5415C30.4792 37.5415 27.625 34.6873 27.625 31.1665C27.625 27.6457 30.4792 24.7915 34 24.7915C37.5208 24.7915 40.375 27.6457 40.375 31.1665Z" fill="#12A1C0"/>
<path d="M34.0003 54.5418L33.5786 55.162C33.8331 55.3351 34.1675 55.3351 34.4221 55.162L34.0003 54.5418ZM50.9587 31.1668C50.9587 33.8099 49.9232 36.5502 48.3014 39.21C46.683 41.864 44.5134 44.3847 42.3242 46.574C40.1374 48.7607 37.9478 50.6003 36.3035 51.8938C35.482 52.54 34.7981 53.0488 34.3207 53.3953C34.0821 53.5685 33.8951 53.701 33.7686 53.7898C33.7053 53.8342 33.6571 53.8676 33.625 53.8897C33.609 53.9008 33.5971 53.909 33.5893 53.9143C33.5854 53.917 33.5825 53.9189 33.5808 53.9202C33.5799 53.9208 33.5792 53.9212 33.5789 53.9214C33.5787 53.9216 33.5786 53.9216 33.5785 53.9217C33.5785 53.9217 33.5786 53.9216 34.0003 54.5418C34.4221 55.162 34.4223 55.1619 34.4225 55.1617C34.4227 55.1616 34.423 55.1614 34.4234 55.1611C34.4241 55.1606 34.4251 55.16 34.4263 55.1591C34.4289 55.1574 34.4324 55.155 34.437 55.1518C34.4463 55.1455 34.4597 55.1362 34.4772 55.1242C34.5122 55.1 34.5634 55.0644 34.6298 55.0179C34.7627 54.9247 34.9562 54.7875 35.2017 54.6093C35.6928 54.2529 36.3923 53.7324 37.231 53.0727C38.907 51.7542 41.1445 49.875 43.3848 47.6347C45.6226 45.3968 47.8801 42.7821 49.5821 39.9909C51.2806 37.2054 52.4587 34.1904 52.4587 31.1668H50.9587ZM34.0003 14.2085C42.9895 14.2085 50.9587 21.6788 50.9587 31.1668H52.4587C52.4587 20.8215 43.7888 12.7085 34.0003 12.7085V14.2085ZM17.042 31.1668C17.042 21.6788 25.0111 14.2085 34.0003 14.2085V12.7085C24.2118 12.7085 15.542 20.8215 15.542 31.1668H17.042ZM34.0003 54.5418C34.4221 53.9216 34.4221 53.9217 34.4221 53.9217C34.422 53.9216 34.422 53.9216 34.4218 53.9214C34.4214 53.9212 34.4208 53.9208 34.4199 53.9202C34.4181 53.9189 34.4153 53.917 34.4114 53.9143C34.4036 53.909 34.3916 53.9008 34.3756 53.8897C34.3436 53.8676 34.2954 53.8342 34.2321 53.7898C34.1055 53.701 33.9186 53.5685 33.6799 53.3953C33.2026 53.0488 32.5186 52.54 31.6971 51.8938C30.0528 50.6003 27.8632 48.7607 25.6765 46.574C23.4872 44.3847 21.3176 41.864 19.6993 39.21C18.0774 36.5502 17.042 33.8099 17.042 31.1668H15.542C15.542 34.1904 16.7201 37.2054 18.4186 39.9909C20.1205 42.7821 22.378 45.3968 24.6158 47.6347C26.8562 49.875 29.0937 51.7542 30.7697 53.0727C31.6083 53.7324 32.3079 54.2529 32.7989 54.6093C33.0445 54.7875 33.238 54.9247 33.3708 55.0179C33.4372 55.0644 33.4885 55.1 33.5234 55.1242C33.5409 55.1362 33.5544 55.1455 33.5636 55.1518C33.5682 55.155 33.5718 55.1574 33.5743 55.1591C33.5756 55.16 33.5765 55.1606 33.5773 55.1611C33.5776 55.1614 33.5779 55.1616 33.5781 55.1617C33.5784 55.1619 33.5786 55.162 34.0003 54.5418ZM34 38.2915C37.935 38.2915 41.125 35.1015 41.125 31.1665H39.625C39.625 34.2731 37.1066 36.7915 34 36.7915V38.2915ZM26.875 31.1665C26.875 35.1015 30.065 38.2915 34 38.2915V36.7915C30.8934 36.7915 28.375 34.2731 28.375 31.1665H26.875ZM34 24.0415C30.065 24.0415 26.875 27.2315 26.875 31.1665H28.375C28.375 28.0599 30.8934 25.5415 34 25.5415V24.0415ZM41.125 31.1665C41.125 27.2315 37.935 24.0415 34 24.0415V25.5415C37.1066 25.5415 39.625 28.0599 39.625 31.1665H41.125Z" fill="white"/>
</g>
<defs>
<filter id="filter0_d_2_5907" x="11.542" y="12.7085" width="44.9166" height="50.5833" filterUnits="userSpaceOnUse" color-interpolation-filters="sRGB">
<feFlood flood-opacity="0" result="BackgroundImageFix"/>
<feColorMatrix in="SourceAlpha" type="matrix" values="0 0 0 0 0 0 0 0 0 0 0 0 0 0 0 0 0 0 127 0" result="hardAlpha"/>
<feOffset dy="4"/>
<feGaussianBlur stdDeviation="2"/>
<feComposite in2="hardAlpha" operator="out"/>
<feColorMatrix type="matrix" values="0 0 0 0 0 0 0 0 0 0 0 0 0 0 0 0 0 0 0.25 0"/>
<feBlend mode="normal" in2="BackgroundImageFix" result="effect1_dropShadow_2_5907"/>
<feBlend mode="normal" in="SourceGraphic" in2="effect1_dropShadow_2_5907" result="shape"/>
</filter>
</defs>
</svg>
