<svg width="16" height="16" viewBox="0 0 16 16" fill="none" xmlns="http://www.w3.org/2000/svg">
<path d="M10.6675 12.3351H5.44531" stroke="#535858" stroke-linecap="round" stroke-linejoin="round"/>
<path d="M12.6661 12.3351H14.0026C14.371 12.3351 14.6696 12.0365 14.6696 11.6682V7.59003C14.6696 7.42043 14.6372 7.25238 14.5742 7.09491L13.6707 4.83668C13.4681 4.33031 12.9776 3.99829 12.4323 3.99829H10.001" stroke="#535858" stroke-linecap="round" stroke-linejoin="round"/>
<path d="M14.6692 8.66692H12.3349C12.1508 8.66692 12.0015 8.51762 12.0015 8.33345V5.99915H14.1357" stroke="#535858" stroke-linecap="round" stroke-linejoin="round"/>
<path d="M12.3726 11.6303C12.6587 11.9164 12.7444 12.3467 12.5895 12.7205C12.4347 13.0944 12.0699 13.3381 11.6653 13.3381C11.2607 13.3382 10.8959 13.0944 10.741 12.7206C10.5861 12.3468 10.6717 11.9165 10.9578 11.6304L10.9579 11.6303C11.1455 11.4427 11.3999 11.3373 11.6652 11.3373C11.9306 11.3373 12.185 11.4427 12.3726 11.6303V11.6303" stroke="#535858" stroke-linecap="round" stroke-linejoin="round"/>
<path d="M5.03642 11.6304C5.32256 11.9165 5.40817 12.3467 5.25334 12.7206C5.09852 13.0944 4.73374 13.3382 4.32911 13.3382C3.92448 13.3382 3.55968 13.0945 3.40481 12.7207C3.24995 12.3469 3.33552 11.9166 3.62162 11.6304L3.62182 11.6302C3.80941 11.4426 4.06385 11.3373 4.32914 11.3373C4.59444 11.3373 4.84885 11.4427 5.03641 11.6304V11.6304" stroke="#535858" stroke-linecap="round" stroke-linejoin="round"/>
<path d="M3.33116 12.335H1.99727C1.62892 12.335 1.33032 12.0364 1.33032 11.6681V3.33125C1.33032 2.96291 1.62892 2.66431 1.99727 2.66431H9.33366C9.702 2.66431 10.0006 2.96291 10.0006 3.33125V9.33375" stroke="#535858" stroke-linecap="round" stroke-linejoin="round"/>
<path d="M10.0006 9.33384H1.33032" stroke="#535858" stroke-linecap="round" stroke-linejoin="round"/>
</svg>
