<svg width="70" height="54" viewBox="0 0 70 54" fill="none" xmlns="http://www.w3.org/2000/svg">
<rect x="1" y="1" width="68" height="52" rx="8" fill="white"/>
<path d="M19.2479 21.8275C17.9114 21.8275 16.8333 22.636 16.137 22.636C15.407 22.636 14.43 21.8724 13.2732 21.8724C11.0721 21.8724 8.83721 23.7029 8.83721 27.1282C8.83721 29.2733 9.66827 31.5306 10.6902 33.0018C11.555 34.2259 12.3299 35.2366 13.4305 35.2366C14.5198 35.2366 15.0027 34.5179 16.3616 34.5179C17.7317 34.5179 18.0462 35.2142 19.2479 35.2142C20.4495 35.2142 21.2469 34.1248 21.9993 33.0467C22.8304 31.8001 23.1898 30.5872 23.201 30.5311C23.1336 30.5086 20.8426 29.5765 20.8426 26.9485C20.8426 24.68 22.6395 23.6693 22.7405 23.5906C21.5613 21.8724 19.7532 21.8275 19.2479 21.8275ZM18.6302 20.3787C19.1692 19.7161 19.5511 18.8177 19.5511 17.908C19.5511 17.7845 19.5398 17.6609 19.5174 17.5599C18.6414 17.5936 17.5633 18.1439 16.9231 18.8963C16.429 19.4691 15.9573 20.3787 15.9573 21.2884C15.9573 21.4232 15.9798 21.5692 15.991 21.6141C16.0472 21.6253 16.137 21.6365 16.2269 21.6365C17.0242 21.6365 18.035 21.0975 18.6302 20.3787ZM27.6155 18.8289V35.0345H30.513V29.7225H34.0281C37.3074 29.7225 39.5984 27.5213 39.5984 24.3094C39.5984 21.0413 37.386 18.8289 34.1516 18.8289H27.6155ZM30.513 21.2547H33.388C35.4768 21.2547 36.656 22.3216 36.656 24.3094C36.656 26.241 35.4431 27.3192 33.3767 27.3192H30.513V21.2547ZM45.0349 33.0467C43.7995 33.0467 42.9123 32.429 42.9123 31.3958C42.9123 30.3963 43.6423 29.8348 45.2033 29.7337L47.9773 29.554V30.5311C47.9773 31.9573 46.7195 33.0467 45.0349 33.0467ZM44.2151 35.2366C45.821 35.2366 47.1687 34.5403 47.8537 33.3499H48.0447V35.0345H50.7287V26.6453C50.7287 24.0399 48.9543 22.5013 45.7986 22.5013C42.8786 22.5013 40.8459 23.8826 40.6213 26.0501H43.2492C43.5075 25.2191 44.3835 24.7698 45.6638 24.7698C47.1687 24.7698 47.9773 25.4437 47.9773 26.6453V27.6785L44.8103 27.8694C41.823 28.0491 40.1496 29.3294 40.1496 31.553C40.1496 33.7991 41.8454 35.2366 44.2151 35.2366ZM53.8293 39.493C56.5808 39.493 57.8947 38.4822 58.9392 35.4276L63.3752 22.7484H60.4328L57.569 32.3392H57.3781L54.5031 22.7484H51.4484L55.8395 35.0906L55.6935 35.6297C55.3342 36.764 54.6716 37.2132 53.4924 37.2132C53.3015 37.2132 52.8859 37.202 52.7287 37.1683V39.4481C52.9084 39.4818 53.6608 39.493 53.8293 39.493Z" fill="black"/>
<rect x="1" y="1" width="68" height="52" rx="8" stroke="black"/>
</svg>
