<?xml version="1.0" encoding="utf-8"?><svg version="1.1" id="Layer_1" xmlns="http://www.w3.org/2000/svg" xmlns:xlink="http://www.w3.org/1999/xlink" x="0px" y="0px" viewBox="0 0 122.88 79.83" style="enable-background:new 0 0 122.88 79.83" xml:space="preserve"><style type="text/css">.st0{fill-rule:evenodd;clip-rule:evenodd;}</style><g><path class="st0" fill="#00664F" d="M0,21.4l12.03,6.47l11.51-21.4L11.51,0L0,21.4L0,21.4z M100.88,54.34c1.81,0,3.41-0.87,4.41-2.22 c1,1.34,2.6,2.22,4.41,2.22c3.04,0,5.5-2.46,5.5-5.5c0-3.04-2.46-5.5-5.5-5.5c-1.81,0-3.41,0.87-4.41,2.22 c-1-1.35-2.6-2.22-4.41-2.22c-3.04,0-5.5,2.46-5.5,5.5C95.38,51.88,97.84,54.34,100.88,54.34L100.88,54.34z M53.21,72.08h66.83 v3.65c0,0.35-0.14,0.67-0.37,0.89l-0.01,0.01c-0.23,0.23-0.54,0.37-0.89,0.37h-64.3c-0.35,0-0.67-0.14-0.89-0.37l-0.01-0.01 c-0.23-0.23-0.37-0.54-0.37-0.89V72.08L53.21,72.08z M120.04,61.21H53.21v-7.24c2.13,0.88,4.38,1.58,6.76,2.07 c7.14,1.31,10.2-4.17,5.87-9.69c-2.83-3.29-6.94-5.86-11.98-7.9c0.18-0.1,0.39-0.16,0.62-0.16h64.3c0.32,0,0.62,0.12,0.84,0.32 c0.02,0.02,0.03,0.04,0.05,0.05c0.23,0.23,0.37,0.55,0.37,0.89V61.21L120.04,61.21z M118.77,79.83h-64.3 c-1.12,0-2.15-0.46-2.89-1.2l0,0l0,0l0,0c-0.74-0.75-1.21-1.77-1.21-2.9V52.65c-2.56-1.32-4.93-2.92-7.13-4.72l-10.57-2.4 c-4.22-1.48-7.44-3.65-9.01-6.96c-0.85-1.77-1.76-3.36-2.71-4.8c-2.17-3.3-0.41-1.43-3.64-3.42l-2.4-1.48 c1.79-4.86,8.7-16.39,11.19-21.02l8.2,2.6c7.16,2.56,15.18,4.4,23.48,6.01c4.06,1.23,6.77,2.96,7.78,5.32l7.03,13.66h46.18 c1.08,0,2.07,0.42,2.8,1.12c0.03,0.03,0.07,0.06,0.1,0.09c0.74,0.74,1.2,1.77,1.2,2.9v36.18c0,1.12-0.46,2.15-1.2,2.89l0,0l0,0l0,0 C120.92,79.37,119.9,79.83,118.77,79.83L118.77,79.83z M51.3,36.95c0.09-0.1,0.18-0.2,0.27-0.3l0,0c0.75-0.75,1.77-1.21,2.9-1.21 h5.72c-0.83-1.04-1.62-2.09-2.33-3.16c-1.55-2.33-0.84-1.89-3.76-2.31c-1.5-0.22-3.01-0.41-4.51-0.54 c-1.07,0.79-2.09,1.58-2.87,2.65C47.86,34.03,49.46,35.66,51.3,36.95L51.3,36.95z"/></g></svg>