<svg width="28" height="14" viewBox="0 0 28 14" fill="none" xmlns="http://www.w3.org/2000/svg">
<path d="M3.73544 12H1.75817L4.77095 3.27273H7.14879L10.1573 12H8.18004L5.99396 5.26705H5.92578L3.73544 12ZM3.61186 8.5696H8.28232V10.0099H3.61186V8.5696ZM11.2077 12V3.27273H17.0884V4.79403H13.0529V6.87358H16.7859V8.39489H13.0529V10.4787H17.1055V12H11.2077ZM21.6491 12H18.5554V3.27273H21.6747C22.5526 3.27273 23.3082 3.44744 23.9418 3.79688C24.5753 4.14347 25.0625 4.64205 25.4034 5.29261C25.7472 5.94318 25.919 6.72159 25.919 7.62784C25.919 8.53693 25.7472 9.31818 25.4034 9.97159C25.0625 10.625 24.5724 11.1264 23.9332 11.4759C23.2969 11.8253 22.5355 12 21.6491 12ZM20.4006 10.419H21.5724C22.1179 10.419 22.5767 10.3224 22.9489 10.1293C23.3239 9.93324 23.6051 9.63068 23.7926 9.22159C23.983 8.80966 24.0781 8.27841 24.0781 7.62784C24.0781 6.98295 23.983 6.45597 23.7926 6.04688C23.6051 5.63778 23.3253 5.33665 22.9531 5.14347C22.581 4.95028 22.1222 4.85369 21.5767 4.85369H20.4006V10.419Z" fill="black"/>
</svg>
