<svg width="80" height="64" viewBox="0 0 80 64" fill="none" xmlns="http://www.w3.org/2000/svg">
<g filter="url(#filter0_d_7_30)">
<rect x="6" y="6" width="68" height="52" rx="4" fill="white"/>
<path d="M37.9511 31.6725V38.7485H35.6903V21.2749H41.6838C43.2028 21.2749 44.498 21.7778 45.5578 22.7836C46.6411 23.7895 47.1828 25.0176 47.1828 26.4679C47.1828 27.9532 46.6411 29.1813 45.5578 30.1754C44.5098 31.1696 43.2146 31.6608 41.6838 31.6608H37.9511V31.6725ZM37.9511 23.4269V29.5205H41.7309C42.6258 29.5205 43.3794 29.2164 43.9682 28.6199C44.5687 28.0234 44.8748 27.2983 44.8748 26.4795C44.8748 25.6725 44.5687 24.9591 43.9682 24.3626C43.3794 23.7427 42.6376 23.4386 41.7309 23.4386H37.9511V23.4269Z" fill="#5F6368"/>
<path d="M53.0939 26.3976C54.766 26.3976 56.0848 26.8421 57.0503 27.731C58.0159 28.6199 58.4986 29.8362 58.4986 31.3801V38.7485H56.3438V37.0877H56.2496C55.3194 38.4561 54.0712 39.1345 52.5169 39.1345C51.1863 39.1345 50.0795 38.7485 49.1846 37.9649C48.2896 37.1813 47.8422 36.2105 47.8422 35.0409C47.8422 33.8011 48.3132 32.8187 49.2552 32.0935C50.1972 31.3567 51.4571 30.9941 53.0232 30.9941C54.3656 30.9941 55.4725 31.2397 56.332 31.731V31.2164C56.332 30.4327 56.0259 29.7778 55.4018 29.228C54.7777 28.6783 54.0477 28.4093 53.2116 28.4093C51.9517 28.4093 50.9508 28.9357 50.2208 30L48.2308 28.7602C49.3259 27.1813 50.9508 26.3976 53.0939 26.3976ZM50.1737 35.076C50.1737 35.6608 50.4209 36.152 50.9273 36.538C51.4218 36.9239 52.0106 37.1228 52.6818 37.1228C53.6355 37.1228 54.4833 36.7719 55.2252 36.0701C55.967 35.3684 56.3438 34.5497 56.3438 33.6023C55.6373 33.0526 54.66 32.7719 53.4 32.7719C52.4816 32.7719 51.7162 32.9941 51.1039 33.4269C50.4798 33.883 50.1737 34.4327 50.1737 35.076Z" fill="#5F6368"/>
<path d="M70.7919 26.7836L63.2558 44H60.9244L63.7268 37.9766L58.7577 26.7836H61.2187L64.7983 35.3684H64.8454L68.3309 26.7836H70.7919Z" fill="#5F6368"/>
<path d="M28.9586 30.2456C28.9586 29.5134 28.8927 28.8128 28.7702 28.1392H19.2936V31.9988L24.7514 32C24.53 33.2842 23.8176 34.3789 22.7261 35.1087V37.6128H25.9748C27.8718 35.869 28.9586 33.2912 28.9586 30.2456Z" fill="#4285F4"/>
<path d="M22.7272 35.1088C21.8229 35.7146 20.6583 36.069 19.296 36.069C16.6642 36.069 14.4317 34.3076 13.6321 31.9333H10.281V34.5158C11.9412 37.7883 15.3537 40.0339 19.296 40.0339C22.0207 40.0339 24.3098 39.1439 25.976 37.6117L22.7272 35.1088Z" fill="#34A853"/>
<path d="M13.3166 30.0176C13.3166 29.3509 13.4284 28.7065 13.6321 28.1006V25.5182H10.2809C9.59446 26.8714 9.20824 28.3989 9.20824 30.0176C9.20824 31.6363 9.59563 33.1638 10.2809 34.517L13.6321 31.9345C13.4284 31.3287 13.3166 30.6842 13.3166 30.0176Z" fill="#FABB05"/>
<path d="M19.296 23.965C20.7831 23.965 22.1149 24.4737 23.1664 25.4679L26.0454 22.6106C24.2968 20.993 22.0172 20 19.296 20C15.3548 20 11.9412 22.2457 10.281 25.5182L13.6321 28.1006C14.4317 25.7264 16.6642 23.965 19.296 23.965Z" fill="#E94235"/>
<rect x="6" y="6" width="68" height="52" rx="4" stroke="black"/>
</g>
<defs>
<filter id="filter0_d_7_30" x="0.5" y="0.5" width="79" height="63" filterUnits="userSpaceOnUse" color-interpolation-filters="sRGB">
<feFlood flood-opacity="0" result="BackgroundImageFix"/>
<feColorMatrix in="SourceAlpha" type="matrix" values="0 0 0 0 0 0 0 0 0 0 0 0 0 0 0 0 0 0 127 0" result="hardAlpha"/>
<feOffset/>
<feGaussianBlur stdDeviation="2.5"/>
<feColorMatrix type="matrix" values="0 0 0 0 0 0 0 0 0 0 0 0 0 0 0 0 0 0 0.2 0"/>
<feBlend mode="normal" in2="BackgroundImageFix" result="effect1_dropShadow_7_30"/>
<feBlend mode="normal" in="SourceGraphic" in2="effect1_dropShadow_7_30" result="shape"/>
</filter>
</defs>
</svg>
