<svg width="38" height="30" viewBox="0 0 38 30" fill="none" xmlns="http://www.w3.org/2000/svg">
<g clip-path="url(#clip0_316_34626)">
<path d="M6.88695 29.4364V27.5117C6.88695 26.7755 6.43058 26.2934 5.64716 26.2934C5.25544 26.2934 4.8295 26.4205 4.53667 26.8391C4.30849 26.4878 3.98143 26.2934 3.49083 26.2934C3.16377 26.2934 2.83671 26.3906 2.5781 26.7419V26.357H1.89355V29.4364H2.5781V27.736C2.5781 27.1903 2.87094 26.9325 3.3273 26.9325C3.78367 26.9325 4.01185 27.2202 4.01185 27.736V29.4364H4.6964V27.736C4.6964 27.1903 5.02346 26.9325 5.4456 26.9325C5.90196 26.9325 6.13014 27.2202 6.13014 27.736V29.4364H6.88695ZM17.0411 26.357H15.9306V25.4264H15.246V26.357H14.6261V26.9661H15.246V28.3787C15.246 29.0851 15.5389 29.4999 16.3223 29.4999C16.6151 29.4999 16.9422 29.4027 17.1704 29.2757L16.9726 28.6964C16.7749 28.8235 16.5467 28.8571 16.3831 28.8571C16.0561 28.8571 15.9268 28.6628 15.9268 28.3451V26.9661H17.0373V26.357H17.0411ZM22.8521 26.2897C22.4604 26.2897 22.198 26.484 22.0345 26.7382V26.3532H21.3499V29.4326H22.0345V27.6986C22.0345 27.1866 22.2626 26.8951 22.6886 26.8951C22.8179 26.8951 22.9814 26.9287 23.1145 26.9586L23.3123 26.3159C23.1754 26.2897 22.9814 26.2897 22.8521 26.2897ZM14.0709 26.6111C13.7438 26.3869 13.2875 26.2897 12.7969 26.2897C12.0135 26.2897 11.4924 26.6746 11.4924 27.2838C11.4924 27.7958 11.8841 28.0873 12.5687 28.1807L12.8958 28.2143C13.2532 28.2778 13.451 28.375 13.451 28.5357C13.451 28.7599 13.1886 28.9206 12.7322 28.9206C12.2759 28.9206 11.9146 28.7599 11.6864 28.5992L11.3593 29.1112C11.7168 29.3691 12.2074 29.4961 12.698 29.4961C13.6107 29.4961 14.1355 29.0776 14.1355 28.5021C14.1355 27.9565 13.7096 27.6687 13.0593 27.5715L12.7322 27.5379C12.4394 27.5043 12.2112 27.4407 12.2112 27.2501C12.2112 27.0259 12.4394 26.8989 12.8007 26.8989C13.1924 26.8989 13.5841 27.0595 13.7819 27.1567L14.0709 26.6111ZM32.2837 26.2897C31.892 26.2897 31.6295 26.484 31.466 26.7382V26.3532H30.7815V29.4326H31.466V27.6986C31.466 27.1866 31.6942 26.8951 32.1201 26.8951C32.2494 26.8951 32.413 26.9287 32.5461 26.9586L32.7438 26.3233C32.6107 26.2897 32.4168 26.2897 32.2837 26.2897ZM23.5367 27.8967C23.5367 28.8272 24.1908 29.4999 25.2024 29.4999C25.6588 29.4999 25.9858 29.4027 26.3129 29.1486L25.9858 28.603C25.7234 28.7973 25.4648 28.8907 25.1682 28.8907C24.6129 28.8907 24.2212 28.5058 24.2212 27.8967C24.2212 27.3174 24.6129 26.9325 25.1682 26.9026C25.461 26.9026 25.7234 26.9998 25.9858 27.1903L26.3129 26.6447C25.9858 26.3869 25.6588 26.2934 25.2024 26.2934C24.1908 26.2897 23.5367 26.9661 23.5367 27.8967ZM29.8687 27.8967V26.357H29.1842V26.7419C28.956 26.4541 28.6289 26.2934 28.203 26.2934C27.3207 26.2934 26.6362 26.9661 26.6362 27.8967C26.6362 28.8272 27.3207 29.4999 28.203 29.4999C28.6594 29.4999 28.9864 29.3392 29.1842 29.0514V29.4364H29.8687V27.8967ZM27.3549 27.8967C27.3549 27.351 27.7124 26.9026 28.3019 26.9026C28.8571 26.9026 29.2488 27.3211 29.2488 27.8967C29.2488 28.4423 28.8571 28.8907 28.3019 28.8907C27.7162 28.8571 27.3549 28.4385 27.3549 27.8967ZM19.1632 26.2897C18.2504 26.2897 17.5963 26.9325 17.5963 27.8929C17.5963 28.8571 18.2504 29.4961 19.1974 29.4961C19.6538 29.4961 20.1101 29.3691 20.4714 29.0776L20.1444 28.5955C19.8819 28.7898 19.5549 28.9169 19.2316 28.9169C18.8057 28.9169 18.3835 28.7226 18.2847 28.1807H20.6007C20.6007 28.0835 20.6007 28.02 20.6007 27.9228C20.6311 26.9325 20.0417 26.2897 19.1632 26.2897ZM19.1632 26.869C19.5891 26.869 19.8819 27.1268 19.9466 27.6052H18.3151C18.3797 27.1903 18.6726 26.869 19.1632 26.869ZM36.1704 27.8967V25.1387H35.4858V26.7419C35.2576 26.4541 34.9306 26.2934 34.5046 26.2934C33.6223 26.2934 32.9378 26.9661 32.9378 27.8967C32.9378 28.8272 33.6223 29.4999 34.5046 29.4999C34.961 29.4999 35.2881 29.3392 35.4858 29.0514V29.4364H36.1704V27.8967ZM33.6566 27.8967C33.6566 27.351 34.0141 26.9026 34.6035 26.9026C35.1588 26.9026 35.5505 27.3211 35.5505 27.8967C35.5505 28.4423 35.1588 28.8907 34.6035 28.8907C34.0141 28.8571 33.6566 28.4385 33.6566 27.8967ZM10.7394 27.8967V26.357H10.0549V26.7419C9.8267 26.4541 9.49964 26.2934 9.0737 26.2934C8.19139 26.2934 7.50684 26.9661 7.50684 27.8967C7.50684 28.8272 8.19139 29.4999 9.0737 29.4999C9.53006 29.4999 9.85712 29.3392 10.0549 29.0514V29.4364H10.7394V27.8967ZM8.1952 27.8967C8.1952 27.351 8.55268 26.9026 9.14215 26.9026C9.6974 26.9026 10.0891 27.3211 10.0891 27.8967C10.0891 28.4423 9.6974 28.8907 9.14215 28.8907C8.55268 28.8571 8.1952 28.4385 8.1952 27.8967Z" fill="black"/>
<path d="M24.1262 2.97021H13.8428V21.1251H24.1262V2.97021Z" fill="#FF5A00"/>
<path d="M14.5276 12.0477C14.5276 8.35915 16.2922 5.08544 19 2.97023C17.0072 1.43054 14.4934 0.5 11.7514 0.5C5.2558 0.5 0 5.66469 0 12.0477C0 18.4307 5.2558 23.5954 11.7514 23.5954C14.4934 23.5954 17.0072 22.6648 19 21.1251C16.2884 19.0398 14.5276 15.7362 14.5276 12.0477Z" fill="#EB001B"/>
<path d="M38 12.0477C38 18.4307 32.7442 23.5954 26.2486 23.5954C23.5066 23.5954 20.9928 22.6648 19 21.1251C21.742 19.0062 23.4724 15.7362 23.4724 12.0477C23.4724 8.35915 21.7078 5.08544 19 2.97023C20.989 1.43054 23.5028 0.5 26.2448 0.5C32.7442 0.5 38 5.69832 38 12.0477Z" fill="#F79E1B"/>
</g>
<defs>
<clipPath id="clip0_316_34626">
<rect width="38" height="29" fill="white" transform="translate(0 0.5)"/>
</clipPath>
</defs>
</svg>
