<svg width="263" height="220" viewBox="0 0 263 220" fill="none" xmlns="http://www.w3.org/2000/svg">
<path d="M95.3644 43.1977C82.6766 30.5386 63.0443 29.0471 48.7097 38.7093L49.8509 40.5668C50.1293 41.0022 56.4012 50.544 74.229 59.6042L75.63 62.5084C84.9497 81.8283 95.1788 88.5493 95.6102 88.8273L99.0153 90.9719C109.634 76.585 108.419 56.2228 95.3644 43.2024V43.1977Z" fill="white"/>
<path d="M77.5969 61.5588C86.759 80.5453 96.8396 87.03 96.8767 87.0486C96.6308 72.9442 85.4879 65.0004 77.5969 61.5588Z" fill="url(#paint0_radial_437_32339)"/>
<path d="M93.8057 44.7263C105.227 56.1302 107.008 73.4862 99.1591 86.7521C99.1591 86.7521 101.21 69.461 79.986 59.9423C58.7579 50.419 51.688 39.3902 51.688 39.3902C64.9881 31.5529 82.3844 33.3363 93.801 44.7263H93.8057Z" fill="url(#paint1_radial_437_32339)"/>
<path d="M43.2449 95.2055C55.9327 107.865 75.565 109.361 89.8996 99.6985L88.7584 97.8411C88.48 97.4057 82.2034 87.8638 64.3803 78.799L62.9793 75.8994C53.6595 56.5795 43.4305 49.8585 42.9991 49.5806L39.594 47.436C28.9753 61.8229 30.1907 82.1804 43.2449 95.2055Z" fill="white"/>
<path d="M61.0124 76.8443C51.8504 57.8579 41.7698 51.3731 41.7327 51.3546C41.9785 65.459 53.1215 73.4028 61.0124 76.8443Z" fill="url(#paint2_radial_437_32339)"/>
<path d="M44.8083 93.6816C33.387 82.2777 31.6056 64.9217 39.4549 51.6557C39.4549 51.6557 37.4044 68.9468 58.6279 78.4655C79.8561 87.9889 86.926 99.0176 86.926 99.0176C73.6259 106.855 56.2295 105.072 44.8129 93.6816H44.8083Z" fill="url(#paint3_radial_437_32339)"/>
<path d="M155.695 167.441V185.399H152.735C149.813 185.399 147.924 183.333 147.924 180.133V167.636C147.924 159.242 144.301 158.163 141.151 158.163C137.477 158.163 135.251 160.062 133.71 161.809V185.399H130.816C127.578 185.399 125.94 183.63 125.94 180.133V167.636C125.94 161.619 123.347 158.163 118.833 158.163C115.034 158.163 112.626 159.104 111.731 159.53V185.399H108.966C105.825 185.399 103.951 183.435 103.951 180.133V155.027L104.294 154.782C104.517 154.624 109.792 150.798 119.227 150.798C124.098 150.798 127.81 152.707 130.268 156.473C132.894 152.943 137.027 150.798 141.346 150.798C150.736 150.798 155.69 156.551 155.69 167.441H155.695ZM193.86 168.099C193.86 178.474 187.138 185.399 177.127 185.399H170.976V196.928H167.951C164.801 196.928 163.205 195.112 163.205 191.527V150.798H177.795C185.519 150.798 193.86 156.76 193.86 168.099ZM170.976 185.399C170.976 179.795 174.191 178.104 177.8 178.104C183.065 178.104 186.094 174.037 186.094 168.923C186.094 160.655 182.763 158.163 176.468 158.163H170.976V185.399ZM228.347 179.526C228.347 184.653 221.258 186.738 217.834 186.738C207.541 186.738 199.747 179.896 199.478 169.053V168.483C199.747 157.64 207.536 150.798 217.834 150.798C221.258 150.798 228.347 152.887 228.347 158.015C228.347 160.854 226.644 161.369 226.644 161.369C226.644 161.369 223.104 157.394 218.173 157.394C211.767 157.394 207.295 162.063 207.295 168.775C207.295 175.482 211.771 180.151 218.173 180.151C223.104 180.151 226.644 176.177 226.644 176.177C226.644 176.177 228.347 176.696 228.347 179.531V179.526Z" fill="#006A51"/>
<path d="M149.214 117.374V128.449C149.214 128.973 149.186 129.491 149.117 130.019C149.061 130.543 148.926 131.015 148.741 131.437C148.546 131.863 148.268 132.206 147.906 132.46C147.544 132.724 147.066 132.854 146.482 132.854H139.713C140.052 131.84 140.224 130.719 140.224 129.51L140.247 112.108C140.247 112.108 134.239 111.38 134.239 117.369L134.207 128.444C134.207 128.949 134.179 129.468 134.114 129.987C134.049 130.51 133.929 130.987 133.757 131.409C133.576 131.835 133.316 132.182 132.982 132.442C132.639 132.715 132.194 132.849 131.641 132.849H127.879C127.295 132.849 126.822 132.72 126.46 132.456C126.093 132.201 125.82 131.854 125.625 131.432C125.425 131.011 125.3 130.538 125.24 130.015C125.179 129.487 125.151 128.968 125.151 128.444V112.108H117.126C115.34 112.108 113.651 112.404 112.051 112.997C110.455 113.59 109.059 114.437 107.857 115.544C106.646 116.656 105.7 117.999 105 119.597C104.299 121.191 103.947 122.979 103.947 124.966C103.947 126.953 104.243 128.69 104.837 130.181C105.431 131.673 106.215 132.914 107.185 133.906C108.154 134.901 109.254 135.647 110.492 136.147C111.722 136.648 112.979 136.893 114.259 136.893C114.825 136.893 115.405 136.847 115.989 136.745C116.579 136.643 117.149 136.513 117.701 136.337C118.253 136.171 118.787 135.971 119.297 135.74C119.803 135.513 120.257 135.263 120.661 134.999C121.371 136.05 122.326 136.875 123.546 137.477C124.766 138.084 126.265 138.385 128.056 138.385H146.292C147.822 138.385 149.158 138.158 150.272 137.695C151.394 137.236 152.313 136.601 153.051 135.795C153.784 134.985 154.322 134.04 154.679 132.97C155.036 131.895 155.212 130.733 155.212 129.505V112.103C155.212 112.103 149.205 111.376 149.205 117.365L149.214 117.374ZM119.139 131.344C118.708 131.682 116.908 132.442 115.187 132.442C114.496 132.442 113.832 132.28 113.201 131.951C112.566 131.627 112.014 131.15 111.541 130.51C111.063 129.871 110.678 129.074 110.39 128.125C110.107 127.171 109.963 126.073 109.963 124.832C109.963 123.678 110.121 122.585 110.437 121.566C110.752 120.542 111.207 119.653 111.8 118.889C112.394 118.134 113.109 117.532 113.934 117.096C114.769 116.656 115.706 116.438 116.755 116.438H119.135V131.349L119.139 131.344ZM228.347 103.798V138.403H222.334V109.092C222.334 104.256 226.226 103.798 227.73 103.802C228.082 103.802 228.347 103.802 228.347 103.802V103.798ZM214.898 103.798C215.241 103.798 215.478 103.798 215.478 103.798V129.519C215.478 130.747 215.297 131.909 214.944 132.984C214.592 134.058 214.044 134.999 213.316 135.809C212.583 136.615 211.655 137.25 210.537 137.708C209.419 138.172 208.088 138.399 206.557 138.399H165.409C163.702 138.399 162.152 138.079 160.77 137.435C159.378 136.791 158.242 135.712 157.351 134.202L160.394 129.783C160.844 130.371 161.308 130.858 161.8 131.251C162.282 131.645 162.769 131.96 163.266 132.206C163.767 132.437 164.258 132.604 164.755 132.711C165.256 132.808 165.752 132.859 166.249 132.859H173.75V123.377C173.75 122.724 173.657 122.052 173.481 121.33C173.305 120.621 173.035 119.959 172.655 119.357C172.293 118.759 171.825 118.268 171.263 117.884C170.697 117.504 170.034 117.309 169.264 117.309C168.8 117.309 168.327 117.383 167.854 117.541C167.38 117.694 166.884 117.842 166.457 118.12C163.08 120.278 161.572 115.424 161.572 115.424C162.324 114.868 163.038 114.391 163.72 113.979C164.398 113.571 165.056 113.224 165.697 112.951C166.337 112.673 166.972 112.464 167.594 112.325C168.225 112.191 168.874 112.117 169.552 112.117C171.013 112.117 172.367 112.399 173.62 112.96C174.868 113.52 175.953 114.298 176.872 115.29C177.786 116.281 178.505 117.448 179.02 118.796C179.539 120.149 179.79 121.603 179.79 123.173V132.863H194.083C194.046 132.34 194.004 131.668 193.985 130.858C193.967 130.043 193.916 126.346 193.911 125.401C193.902 124.447 193.897 121.71 193.897 120.908C193.897 120.241 193.809 119.662 193.623 119.19C193.438 118.717 193.187 118.342 192.858 118.05C192.533 117.754 192.153 117.545 191.698 117.411C191.253 117.281 190.77 117.212 190.246 117.212C189.648 117.212 189.054 117.291 188.488 117.43C187.913 117.578 187.338 117.684 186.869 117.986C183.339 120.274 181.715 115.285 181.715 115.285C182.578 114.669 183.399 114.16 184.197 113.752C184.99 113.34 185.765 113.015 186.521 112.779C187.273 112.543 188.024 112.372 188.762 112.27C189.504 112.172 190.251 112.121 191.007 112.121C192.297 112.121 193.494 112.307 194.593 112.673C195.683 113.043 196.63 113.594 197.437 114.326C198.239 115.053 198.866 115.952 199.32 117.027C199.775 118.092 199.997 119.32 199.997 120.704C199.997 122.395 200.007 123.808 200.025 124.957C200.039 126.105 200.072 128.843 200.118 129.616C200.16 130.395 200.229 131.029 200.308 131.529C200.396 132.03 200.512 132.474 200.647 132.859H206.752C207.341 132.859 207.81 132.729 208.176 132.465C208.533 132.21 208.816 131.863 209.006 131.441C209.201 131.02 209.331 130.547 209.391 130.024C209.456 129.496 209.484 128.977 209.484 128.454L209.503 109.087C209.503 104.224 213.437 103.793 214.917 103.802L214.898 103.798ZM115.637 106.169C115.637 107.471 114.575 108.536 113.262 108.536C111.949 108.536 110.887 107.476 110.887 106.169C110.887 104.863 111.949 103.798 113.262 103.798C114.575 103.798 115.637 104.859 115.637 106.169ZM122.164 106.169C122.164 107.471 121.102 108.536 119.789 108.536C118.476 108.536 117.414 107.476 117.414 106.169C117.414 104.863 118.476 103.798 119.789 103.798C121.102 103.798 122.164 104.859 122.164 106.169ZM132.648 106.174C132.648 107.48 131.586 108.541 130.278 108.541C128.969 108.541 127.902 107.48 127.902 106.174C127.902 104.868 128.965 103.798 130.278 103.798C131.59 103.798 132.648 104.863 132.648 106.174ZM139.718 106.174C139.718 107.48 138.656 108.541 137.352 108.541C136.049 108.541 134.977 107.48 134.977 106.174C134.977 104.868 136.039 103.798 137.352 103.798C138.665 103.798 139.718 104.863 139.718 106.174ZM136.188 100.592C136.188 101.903 135.121 102.964 133.813 102.964C132.504 102.964 131.447 101.908 131.447 100.592C131.447 99.277 132.504 98.2255 133.813 98.2255C135.121 98.2255 136.188 99.2862 136.188 100.592ZM152.248 144.318C152.248 145.624 151.186 146.681 149.873 146.681C148.56 146.681 147.502 145.624 147.502 144.318C147.502 143.012 148.555 141.942 149.873 141.942C151.19 141.942 152.248 143.007 152.248 144.318ZM145.726 144.318C145.726 145.624 144.659 146.681 143.35 146.681C142.042 146.681 140.98 145.624 140.98 144.318C140.98 143.012 142.038 141.942 143.35 141.942C144.663 141.942 145.726 143.007 145.726 144.318Z" fill="#22BCB9"/>
<defs>
<radialGradient id="paint0_radial_437_32339" cx="0" cy="0" r="1" gradientUnits="userSpaceOnUse" gradientTransform="translate(70.7332 47.7007) rotate(-132.043) scale(40.4137 25.4646)">
<stop stop-color="#B5E1E1"/>
<stop offset="0.16" stop-color="#59C7C7"/>
<stop offset="0.3" stop-color="#00AFAE"/>
<stop offset="0.71" stop-color="#00807B"/>
<stop offset="1" stop-color="#026B6E"/>
</radialGradient>
<radialGradient id="paint1_radial_437_32339" cx="0" cy="0" r="1" gradientUnits="userSpaceOnUse" gradientTransform="translate(65.8436 42.3041) rotate(-135.064) scale(59.5708 59.5707)">
<stop stop-color="#B5E1E1"/>
<stop offset="0.16" stop-color="#59C7C7"/>
<stop offset="0.3" stop-color="#00AFAE"/>
<stop offset="0.71" stop-color="#00807B"/>
<stop offset="1" stop-color="#026B6E"/>
</radialGradient>
<radialGradient id="paint2_radial_437_32339" cx="0" cy="0" r="1" gradientUnits="userSpaceOnUse" gradientTransform="translate(67.8524 70.2008) rotate(47.9567) scale(40.409 25.4617)">
<stop stop-color="#B5DECD"/>
<stop offset="0.16" stop-color="#59C497"/>
<stop offset="0.3" stop-color="#06AE67"/>
<stop offset="0.71" stop-color="#018047"/>
<stop offset="1" stop-color="#0C573B"/>
</radialGradient>
<radialGradient id="paint3_radial_437_32339" cx="0" cy="0" r="1" gradientUnits="userSpaceOnUse" gradientTransform="translate(43.3238 71.4388) scale(37.3627 37.3059)">
<stop stop-color="#B5DECD"/>
<stop offset="0.16" stop-color="#59C497"/>
<stop offset="0.3" stop-color="#06AE67"/>
<stop offset="0.71" stop-color="#018047"/>
<stop offset="1" stop-color="#0C573B"/>
</radialGradient>
</defs>
</svg>
