<svg width="54" height="45" viewBox="0 0 54 45" fill="none" xmlns="http://www.w3.org/2000/svg">
<g clip-path="url(#clip0_437_32335)">
<path d="M19.5805 8.83589C16.9754 6.24651 12.9444 5.94143 10.0012 7.91781L10.2355 8.29774C10.2927 8.3868 11.5805 10.3385 15.2409 12.1917L15.5286 12.7858C17.4421 16.7376 19.5424 18.1124 19.631 18.1692L20.3301 18.6079C22.5104 15.6651 22.2608 11.5001 19.5805 8.83684V8.83589Z" fill="white"/>
<path d="M15.9324 12.5916C17.8136 16.4751 19.8833 17.8016 19.891 17.8054C19.8405 14.9204 17.5526 13.2955 15.9324 12.5916Z" fill="#979F9F"/>
<path d="M19.2605 9.14855C21.6056 11.4812 21.9713 15.0313 20.3597 17.7448C20.3597 17.7448 20.7807 14.2079 16.423 12.2609C12.0644 10.313 10.6128 8.05709 10.6128 8.05709C13.3436 6.45401 16.9155 6.81878 19.2596 9.14855H19.2605Z" fill="#979F9F"/>
<path d="M8.87914 19.4739C11.4842 22.0632 15.5152 22.3693 18.4584 20.3929L18.2241 20.013C18.167 19.9239 16.8782 17.9721 13.2187 16.118L12.9311 15.5249C11.0175 11.5731 8.91724 10.1983 8.82866 10.1415L8.12953 9.70282C5.94926 12.6456 6.19881 16.8096 8.87914 19.4739Z" fill="white"/>
<path d="M12.5272 15.7181C10.646 11.8345 8.57622 10.5081 8.5686 10.5043C8.61909 13.3893 10.907 15.0142 12.5272 15.7181Z" fill="#979F9F"/>
<path d="M9.20016 19.1621C6.85511 16.8295 6.48935 13.2794 8.10098 10.5659C8.10098 10.5659 7.67998 14.1027 12.0377 16.0497C16.3963 17.9977 17.8479 20.2536 17.8479 20.2536C15.1171 21.8567 11.5452 21.4919 9.20112 19.1621H9.20016Z" fill="#979F9F"/>
<path d="M31.9677 34.2493V37.9226H31.36C30.7599 37.9226 30.3722 37.5 30.3722 36.8453V34.2891C30.3722 32.5724 29.6283 32.3516 28.9816 32.3516C28.2272 32.3516 27.77 32.74 27.4538 33.0972V37.9226H26.8594C26.1946 37.9226 25.8583 37.5607 25.8583 36.8453V34.2891C25.8583 33.0584 25.3259 32.3516 24.3991 32.3516C23.619 32.3516 23.1247 32.5439 22.9408 32.6311V37.9226H22.3732C21.7283 37.9226 21.3435 37.5209 21.3435 36.8453V31.7102L21.414 31.66C21.4597 31.6277 22.5427 30.8452 24.4801 30.8452C25.4802 30.8452 26.2422 31.2355 26.747 32.0058C27.2861 31.2838 28.1348 30.8452 29.0216 30.8452C30.9495 30.8452 31.9667 32.0219 31.9667 34.2493H31.9677ZM39.8039 34.3839C39.8039 36.5062 38.4237 37.9226 36.3682 37.9226H35.1052V40.2808H34.4842C33.8374 40.2808 33.5098 39.9094 33.5098 39.1761V30.8452H36.5054C38.0913 30.8452 39.8039 32.0645 39.8039 34.3839ZM35.1052 37.9226C35.1052 36.7762 35.7653 36.4304 36.5063 36.4304C37.5874 36.4304 38.2094 35.5985 38.2094 34.5525C38.2094 32.8613 37.5255 32.3516 36.233 32.3516H35.1052V37.9226ZM46.8848 36.7212C46.8848 37.7701 45.4293 38.1964 44.7264 38.1964C42.6128 38.1964 41.0126 36.797 40.9574 34.579V34.4625C41.0126 32.2445 42.6118 30.8452 44.7264 30.8452C45.4293 30.8452 46.8848 31.2725 46.8848 32.3213C46.8848 32.9021 46.5352 33.0072 46.5352 33.0072C46.5352 33.0072 45.8084 32.1943 44.7959 32.1943C43.4805 32.1943 42.5623 33.1493 42.5623 34.5222C42.5623 35.8941 43.4815 36.8491 44.7959 36.8491C45.8084 36.8491 46.5352 36.0362 46.5352 36.0362C46.5352 36.0362 46.8848 36.1423 46.8848 36.7222V36.7212Z" fill="#979F9F"/>
<path d="M30.637 24.0084V26.2737C30.637 26.3808 30.6313 26.4869 30.617 26.5949C30.6056 26.702 30.578 26.7986 30.5399 26.8848C30.4999 26.972 30.4427 27.0421 30.3684 27.0942C30.2941 27.1482 30.196 27.1747 30.076 27.1747H28.6863C28.7558 26.9672 28.7911 26.738 28.7911 26.4907L28.7958 22.9311C28.7958 22.9311 27.5623 22.7824 27.5623 24.0074L27.5557 26.2728C27.5557 26.376 27.55 26.4822 27.5366 26.5883C27.5233 26.6953 27.4985 26.7929 27.4633 26.8791C27.4261 26.9663 27.3728 27.0374 27.3042 27.0904C27.2337 27.1463 27.1423 27.1738 27.0289 27.1738H26.2565C26.1365 27.1738 26.0393 27.1473 25.965 27.0933C25.8898 27.0411 25.8336 26.9701 25.7936 26.8839C25.7526 26.7977 25.7269 26.701 25.7145 26.594C25.7021 26.4859 25.6964 26.3798 25.6964 26.2728V22.9311H24.0486C23.6819 22.9311 23.3352 22.9918 23.0065 23.113C22.6789 23.2343 22.3922 23.4077 22.1455 23.6341C21.8969 23.8615 21.7026 24.1363 21.5587 24.4631C21.4149 24.7891 21.3425 25.1548 21.3425 25.5612C21.3425 25.9677 21.4035 26.323 21.5254 26.6281C21.6473 26.9331 21.8083 27.1871 22.0074 27.3898C22.2064 27.5935 22.4322 27.746 22.6865 27.8484C22.9389 27.9507 23.197 28.0009 23.4599 28.0009C23.5761 28.0009 23.6952 27.9914 23.8152 27.9706C23.9362 27.9497 24.0533 27.9232 24.1667 27.8872C24.28 27.8531 24.3896 27.8124 24.4943 27.765C24.5982 27.7186 24.6915 27.6674 24.7744 27.6134C24.9201 27.8285 25.1163 27.9971 25.3668 28.1203C25.6173 28.2444 25.925 28.306 26.2927 28.306H30.0369C30.3513 28.306 30.6256 28.2596 30.8542 28.1648C31.0847 28.071 31.2733 27.9412 31.4247 27.7764C31.5752 27.6106 31.6857 27.4173 31.7591 27.1984C31.8324 26.9786 31.8686 26.7408 31.8686 26.4897V22.9302C31.8686 22.9302 30.6351 22.7814 30.6351 24.0065L30.637 24.0084ZM24.462 26.8659C24.3734 26.935 24.0038 27.0904 23.6504 27.0904C23.5085 27.0904 23.3723 27.0573 23.2428 26.99C23.1123 26.9237 22.9989 26.8261 22.9018 26.6953C22.8037 26.5646 22.7246 26.4016 22.6655 26.2074C22.6074 26.0122 22.5779 25.7877 22.5779 25.5338C22.5779 25.2978 22.6103 25.0742 22.6751 24.8658C22.7398 24.6564 22.8332 24.4745 22.9551 24.3182C23.077 24.1637 23.2237 24.0406 23.3933 23.9515C23.5647 23.8615 23.7571 23.817 23.9724 23.817H24.461V26.8668L24.462 26.8659ZM46.8847 21.2314V28.3098H45.6503V22.3143C45.6503 21.3252 46.4494 21.2314 46.758 21.2323C46.8304 21.2323 46.8847 21.2323 46.8847 21.2323V21.2314ZM44.1234 21.2314C44.1939 21.2314 44.2425 21.2314 44.2425 21.2314V26.4926C44.2425 26.7436 44.2054 26.9815 44.133 27.2013C44.0606 27.4211 43.9482 27.6134 43.7986 27.7792C43.6481 27.9441 43.4576 28.0739 43.2281 28.1677C42.9985 28.2624 42.7252 28.3088 42.4108 28.3088H33.9622C33.6117 28.3088 33.2935 28.2435 33.0097 28.1118C32.7239 27.9801 32.4906 27.7593 32.3077 27.4504L32.9325 26.5466C33.0249 26.6669 33.1202 26.7664 33.2211 26.8469C33.3202 26.9275 33.4202 26.9919 33.5221 27.0421C33.625 27.0895 33.726 27.1236 33.8279 27.1454C33.9307 27.1653 34.0327 27.1757 34.1346 27.1757H35.6748V25.2363C35.6748 25.1027 35.6557 24.9653 35.6195 24.8175C35.5833 24.6725 35.5281 24.537 35.45 24.4139C35.3757 24.2917 35.2795 24.1912 35.1642 24.1126C35.048 24.0349 34.9118 23.9951 34.7537 23.9951C34.6585 23.9951 34.5613 24.0103 34.4641 24.0425C34.367 24.0737 34.2651 24.1041 34.1774 24.1609C33.484 24.6024 33.1745 23.6095 33.1745 23.6095C33.3288 23.4958 33.4755 23.3982 33.6155 23.3139C33.7545 23.2305 33.8898 23.1595 34.0212 23.1036C34.1527 23.0467 34.2832 23.0041 34.4108 22.9756C34.5403 22.9482 34.6737 22.933 34.8128 22.933C35.1128 22.933 35.3909 22.9908 35.6481 23.1054C35.9043 23.2201 36.1272 23.3793 36.3158 23.582C36.5034 23.7848 36.6511 24.0235 36.7568 24.2992C36.8635 24.5759 36.9149 24.8734 36.9149 25.1946V27.1766H39.8496C39.842 27.0696 39.8334 26.9322 39.8296 26.7664C39.8258 26.5996 39.8153 25.8436 39.8143 25.6503C39.8124 25.4551 39.8115 24.8952 39.8115 24.7313C39.8115 24.5948 39.7934 24.4764 39.7553 24.3798C39.7172 24.2831 39.6657 24.2064 39.5981 24.1467C39.5314 24.0861 39.4533 24.0434 39.36 24.0159C39.2686 23.9894 39.1695 23.9752 39.0619 23.9752C38.939 23.9752 38.8171 23.9913 38.7009 24.0197C38.5828 24.0501 38.4646 24.0718 38.3684 24.1334C37.6436 24.6015 37.3102 23.5811 37.3102 23.5811C37.4874 23.4551 37.656 23.3508 37.8198 23.2675C37.9827 23.1831 38.1417 23.1168 38.297 23.0685C38.4513 23.0202 38.6056 22.9851 38.7571 22.9643C38.9095 22.9444 39.0628 22.934 39.2181 22.934C39.4829 22.934 39.7286 22.9719 39.9543 23.0467C40.1782 23.1225 40.3725 23.2352 40.5382 23.3849C40.703 23.5337 40.8316 23.7175 40.9249 23.9373C41.0183 24.1552 41.064 24.4063 41.064 24.6896C41.064 25.0354 41.0659 25.3244 41.0697 25.5593C41.0726 25.7943 41.0793 26.3542 41.0888 26.5125C41.0973 26.6716 41.1116 26.8014 41.1278 26.9038C41.1459 27.0061 41.1697 27.097 41.1974 27.1757H42.4508C42.5718 27.1757 42.668 27.1492 42.7433 27.0952C42.8166 27.043 42.8747 26.972 42.9138 26.8858C42.9538 26.7995 42.9804 26.7029 42.9928 26.5958C43.0062 26.4878 43.0119 26.3817 43.0119 26.2747L43.0157 22.3134C43.0157 21.3186 43.8234 21.2304 44.1272 21.2323L44.1234 21.2314ZM23.7428 21.7165C23.7428 21.9827 23.5247 22.2006 23.2551 22.2006C22.9856 22.2006 22.7675 21.9837 22.7675 21.7165C22.7675 21.4493 22.9856 21.2314 23.2551 21.2314C23.5247 21.2314 23.7428 21.4484 23.7428 21.7165ZM25.083 21.7165C25.083 21.9827 24.8649 22.2006 24.5953 22.2006C24.3258 22.2006 24.1076 21.9837 24.1076 21.7165C24.1076 21.4493 24.3258 21.2314 24.5953 21.2314C24.8649 21.2314 25.083 21.4484 25.083 21.7165ZM27.2356 21.7174C27.2356 21.9846 27.0175 22.2016 26.7489 22.2016C26.4803 22.2016 26.2612 21.9846 26.2612 21.7174C26.2612 21.4503 26.4794 21.2314 26.7489 21.2314C27.0185 21.2314 27.2356 21.4493 27.2356 21.7174ZM28.6872 21.7174C28.6872 21.9846 28.4691 22.2016 28.2015 22.2016C27.9338 22.2016 27.7138 21.9846 27.7138 21.7174C27.7138 21.4503 27.9319 21.2314 28.2015 21.2314C28.471 21.2314 28.6872 21.4493 28.6872 21.7174ZM27.9624 20.5758C27.9624 20.8439 27.7433 21.0609 27.4747 21.0609C27.2061 21.0609 26.9889 20.8448 26.9889 20.5758C26.9889 20.3067 27.2061 20.0916 27.4747 20.0916C27.7433 20.0916 27.9624 20.3086 27.9624 20.5758ZM31.2599 29.5197C31.2599 29.7869 31.0418 30.0029 30.7723 30.0029C30.5027 30.0029 30.2855 29.7869 30.2855 29.5197C30.2855 29.2525 30.5018 29.0336 30.7723 29.0336C31.0428 29.0336 31.2599 29.2515 31.2599 29.5197ZM29.9207 29.5197C29.9207 29.7869 29.7017 30.0029 29.4331 30.0029C29.1644 30.0029 28.9463 29.7869 28.9463 29.5197C28.9463 29.2525 29.1635 29.0336 29.4331 29.0336C29.7026 29.0336 29.9207 29.2515 29.9207 29.5197Z" fill="#979F9F"/>
</g>
<defs>
<clipPath id="clip0_437_32335">
<rect width="54" height="45" fill="white"/>
</clipPath>
</defs>
</svg>
