<svg width="187" height="27" fill="none" xmlns="http://www.w3.org/2000/svg"><path d="M9.947 7.028c2.266 0 4.102.691 5.508 2.074 1.405 1.36 2.108 3.332 2.108 5.916V26h-3.06V15.46c0-1.859-.465-3.275-1.394-4.25-.93-.997-2.2-1.496-3.808-1.496-1.632 0-2.936.51-3.91 1.53-.952 1.02-1.428 2.505-1.428 4.454V26H.869V7.368h3.094v2.652a6.168 6.168 0 0 1 2.482-2.21c1.065-.521 2.232-.782 3.502-.782ZM39.99 15.97c0 .59-.034 1.213-.102 1.87H24.997c.113 1.836.736 3.275 1.87 4.318 1.156 1.02 2.55 1.53 4.182 1.53 1.337 0 2.448-.306 3.332-.918a5.007 5.007 0 0 0 1.904-2.516h3.332c-.499 1.79-1.496 3.253-2.992 4.386-1.496 1.11-3.355 1.666-5.576 1.666-1.768 0-3.355-.397-4.76-1.19-1.383-.793-2.471-1.915-3.264-3.366-.794-1.473-1.19-3.173-1.19-5.1 0-1.927.385-3.615 1.156-5.066.77-1.45 1.847-2.561 3.23-3.332 1.405-.793 3.014-1.19 4.828-1.19 1.768 0 3.332.385 4.692 1.156a7.862 7.862 0 0 1 3.128 3.196c.748 1.337 1.122 2.856 1.122 4.556Zm-3.196-.646c0-1.179-.261-2.187-.782-3.026a4.921 4.921 0 0 0-2.142-1.938c-.884-.453-1.87-.68-2.958-.68-1.564 0-2.902.499-4.012 1.496-1.088.997-1.712 2.38-1.87 4.148h11.764ZM54.173 26l-4.42-6.936L45.503 26h-3.23l6.018-9.248-6.018-9.384h3.502l4.42 6.902 4.216-6.902h3.23l-5.984 9.214L57.675 26h-3.502ZM64.866 9.918V20.9c0 .907.193 1.553.578 1.938.385.363 1.054.544 2.006.544h2.278V26H66.94c-1.722 0-3.014-.397-3.876-1.19-.861-.793-1.292-2.097-1.292-3.91V9.918h-2.414v-2.55h2.414V2.676h3.094v4.692h4.862v2.55h-4.862Zm29.147-7.786V26h-5.814v-9.826h-9.044V26H73.34V2.132h5.814v9.35h9.044v-9.35h5.814Zm22.455 14.076c0 .544-.034 1.11-.102 1.7h-13.158c.091 1.179.465 2.085 1.122 2.72.68.612 1.507.918 2.482.918 1.451 0 2.459-.612 3.026-1.836h6.188a8.373 8.373 0 0 1-1.734 3.366c-.816.997-1.847 1.78-3.094 2.346-1.247.567-2.641.85-4.182.85-1.859 0-3.513-.397-4.964-1.19-1.451-.793-2.584-1.927-3.4-3.4-.816-1.473-1.224-3.196-1.224-5.168s.397-3.695 1.19-5.168c.816-1.473 1.949-2.607 3.4-3.4 1.451-.793 3.117-1.19 4.998-1.19 1.836 0 3.468.385 4.896 1.156a8.188 8.188 0 0 1 3.332 3.298c.816 1.428 1.224 3.094 1.224 4.998Zm-5.95-1.53c0-.997-.34-1.79-1.02-2.38-.68-.59-1.53-.884-2.55-.884-.975 0-1.802.283-2.482.85-.657.567-1.065 1.371-1.224 2.414h7.276Zm8.235 1.802c0-1.95.363-3.66 1.088-5.134.748-1.473 1.757-2.607 3.026-3.4 1.27-.793 2.686-1.19 4.25-1.19 1.338 0 2.505.272 3.502.816 1.02.544 1.802 1.258 2.346 2.142V7.028h5.814V26h-5.814v-2.686c-.566.884-1.36 1.598-2.38 2.142-.997.544-2.164.816-3.502.816-1.541 0-2.946-.397-4.216-1.19-1.269-.816-2.278-1.96-3.026-3.434-.725-1.496-1.088-3.219-1.088-5.168Zm14.212.034c0-1.45-.408-2.595-1.224-3.434-.793-.839-1.768-1.258-2.924-1.258s-2.142.42-2.958 1.258c-.793.816-1.19 1.95-1.19 3.4s.397 2.607 1.19 3.468c.816.839 1.802 1.258 2.958 1.258 1.156 0 2.131-.42 2.924-1.258.816-.839 1.224-1.983 1.224-3.434ZM149.173.84V26h-5.814V.84h5.814Zm15.162 20.23V26h-2.958c-2.108 0-3.752-.51-4.93-1.53-1.179-1.043-1.768-2.731-1.768-5.066v-7.548h-2.312V7.028h2.312V2.404h5.814v4.624h3.808v4.828h-3.808v7.616c0 .567.136.975.408 1.224.272.25.725.374 1.36.374h2.074Zm15.274-14.246c2.176 0 3.922.725 5.236 2.176 1.315 1.428 1.972 3.4 1.972 5.916V26h-5.78V15.698c0-1.27-.328-2.255-.986-2.958-.657-.703-1.541-1.054-2.652-1.054-1.11 0-1.994.351-2.652 1.054-.657.703-.986 1.689-.986 2.958V26h-5.814V.84h5.814v8.738c.59-.839 1.394-1.507 2.414-2.006 1.02-.499 2.165-.748 3.434-.748Z" fill="#e25f6d"/></svg>