<svg width="187" height="27" viewBox="0 0 187 27" fill="none" xmlns="http://www.w3.org/2000/svg">
<path d="M9.9466 7.028C12.2133 7.028 14.0493 7.71933 15.4546 9.102C16.8599 10.462 17.5626 12.434 17.5626 15.018V26H14.5026V15.46C14.5026 13.6013 14.0379 12.1847 13.1086 11.21C12.1793 10.2127 10.9099 9.714 9.3006 9.714C7.6686 9.714 6.36526 10.224 5.3906 11.244C4.4386 12.264 3.9626 13.7487 3.9626 15.698V26H0.868595V7.368H3.9626V10.02C4.5746 9.068 5.40193 8.33133 6.4446 7.81C7.50993 7.28867 8.67726 7.028 9.9466 7.028ZM39.9906 15.97C39.9906 16.5593 39.9566 17.1827 39.8886 17.84H24.9966C25.11 19.676 25.7333 21.1153 26.8666 22.158C28.0226 23.178 29.4166 23.688 31.0486 23.688C32.386 23.688 33.4966 23.382 34.3806 22.77C35.2873 22.1353 35.922 21.2967 36.2846 20.254H39.6166C39.118 22.0447 38.1206 23.5067 36.6246 24.64C35.1286 25.7507 33.27 26.306 31.0486 26.306C29.2806 26.306 27.694 25.9093 26.2886 25.116C24.906 24.3227 23.818 23.2007 23.0246 21.75C22.2313 20.2767 21.8346 18.5767 21.8346 16.65C21.8346 14.7233 22.22 13.0347 22.9906 11.584C23.7613 10.1333 24.838 9.02267 26.2206 8.252C27.626 7.45867 29.2353 7.062 31.0486 7.062C32.8166 7.062 34.3806 7.44733 35.7406 8.218C37.1006 8.98867 38.1433 10.054 38.8686 11.414C39.6166 12.7513 39.9906 14.27 39.9906 15.97ZM36.7946 15.324C36.7946 14.1453 36.534 13.1367 36.0126 12.298C35.4913 11.4367 34.7773 10.7907 33.8706 10.36C32.9866 9.90667 32.0006 9.68 30.9126 9.68C29.3486 9.68 28.0113 10.1787 26.9006 11.176C25.8126 12.1733 25.1893 13.556 25.0306 15.324H36.7946ZM54.1726 26L49.7526 19.064L45.5026 26H42.2726L48.2906 16.752L42.2726 7.368H45.7746L50.1946 14.27L54.4106 7.368H57.6406L51.6566 16.582L57.6746 26H54.1726ZM64.8662 9.918V20.9C64.8662 21.8067 65.0588 22.4527 65.4442 22.838C65.8295 23.2007 66.4982 23.382 67.4502 23.382H69.7282V26H66.9402C65.2175 26 63.9255 25.6033 63.0642 24.81C62.2028 24.0167 61.7722 22.7133 61.7722 20.9V9.918H59.3582V7.368H61.7722V2.676H64.8662V7.368H69.7282V9.918H64.8662ZM94.0129 2.132V26H88.1989V16.174H79.1549V26H73.3409V2.132H79.1549V11.482H88.1989V2.132H94.0129ZM116.468 16.208C116.468 16.752 116.434 17.3187 116.366 17.908H103.208C103.299 19.0867 103.673 19.9933 104.33 20.628C105.01 21.24 105.837 21.546 106.812 21.546C108.263 21.546 109.271 20.934 109.838 19.71H116.026C115.709 20.9567 115.131 22.0787 114.292 23.076C113.476 24.0733 112.445 24.8553 111.198 25.422C109.951 25.9887 108.557 26.272 107.016 26.272C105.157 26.272 103.503 25.8753 102.052 25.082C100.601 24.2887 99.4681 23.1553 98.6521 21.682C97.8361 20.2087 97.4281 18.486 97.4281 16.514C97.4281 14.542 97.8247 12.8193 98.6181 11.346C99.4341 9.87267 100.567 8.73933 102.018 7.946C103.469 7.15267 105.135 6.756 107.016 6.756C108.852 6.756 110.484 7.14133 111.912 7.912C113.34 8.68267 114.451 9.782 115.244 11.21C116.06 12.638 116.468 14.304 116.468 16.208ZM110.518 14.678C110.518 13.6807 110.178 12.8873 109.498 12.298C108.818 11.7087 107.968 11.414 106.948 11.414C105.973 11.414 105.146 11.6973 104.466 12.264C103.809 12.8307 103.401 13.6353 103.242 14.678H110.518ZM118.753 16.48C118.753 14.5307 119.116 12.8193 119.841 11.346C120.589 9.87267 121.598 8.73933 122.867 7.946C124.137 7.15267 125.553 6.756 127.117 6.756C128.455 6.756 129.622 7.028 130.619 7.572C131.639 8.116 132.421 8.83 132.965 9.714V7.028H138.779V26H132.965V23.314C132.399 24.198 131.605 24.912 130.585 25.456C129.588 26 128.421 26.272 127.083 26.272C125.542 26.272 124.137 25.8753 122.867 25.082C121.598 24.266 120.589 23.1213 119.841 21.648C119.116 20.152 118.753 18.4293 118.753 16.48ZM132.965 16.514C132.965 15.0633 132.557 13.9187 131.741 13.08C130.948 12.2413 129.973 11.822 128.817 11.822C127.661 11.822 126.675 12.2413 125.859 13.08C125.066 13.896 124.669 15.0293 124.669 16.48C124.669 17.9307 125.066 19.0867 125.859 19.948C126.675 20.7867 127.661 21.206 128.817 21.206C129.973 21.206 130.948 20.7867 131.741 19.948C132.557 19.1093 132.965 17.9647 132.965 16.514ZM149.173 0.84V26H143.359V0.84H149.173ZM164.335 21.07V26H161.377C159.269 26 157.625 25.49 156.447 24.47C155.268 23.4273 154.679 21.7387 154.679 19.404V11.856H152.367V7.028H154.679V2.404H160.493V7.028H164.301V11.856H160.493V19.472C160.493 20.0387 160.629 20.4467 160.901 20.696C161.173 20.9453 161.626 21.07 162.261 21.07H164.335ZM179.609 6.824C181.785 6.824 183.531 7.54933 184.845 9C186.16 10.428 186.817 12.4 186.817 14.916V26H181.037V15.698C181.037 14.4287 180.709 13.4427 180.051 12.74C179.394 12.0373 178.51 11.686 177.399 11.686C176.289 11.686 175.405 12.0373 174.747 12.74C174.09 13.4427 173.761 14.4287 173.761 15.698V26H167.947V0.84H173.761V9.578C174.351 8.73933 175.155 8.07067 176.175 7.572C177.195 7.07333 178.34 6.824 179.609 6.824Z" fill="white"/>
</svg>
