<svg width="16" height="16" viewBox="0 0 16 16" fill="none" xmlns="http://www.w3.org/2000/svg">
<path fill-rule="evenodd" clip-rule="evenodd" d="M8 1.34375C9.89584 1.38542 11.4687 2.03124 12.7188 3.28125C13.9688 4.53126 14.6146 6.10416 14.6562 8C14.6146 9.89584 13.9688 11.4687 12.7188 12.7188C11.4687 13.9688 9.89584 14.6146 8 14.6562C6.10416 14.6146 4.53126 13.9688 3.28125 12.7188C2.03124 11.4687 1.38542 9.89584 1.34375 8C1.38542 6.10416 2.03124 4.53126 3.28125 3.28125C4.53126 2.03124 6.10416 1.38542 8 1.34375ZM7.34375 11L12 6.34375L11.0625 5.40625L7.34375 9.125L5.28125 7.0625L4.34375 8L7.34375 11Z" fill="#37B44E"/>
</svg>
