<svg width="48" height="16" viewBox="0 0 48 16" fill="none" xmlns="http://www.w3.org/2000/svg">
<path d="M18.2247 0.283839L11.9402 15.7582H7.84023L4.74773 3.40787C4.55998 2.64719 4.39773 2.36876 3.82598 2.04828C2.89373 1.52602 1.35423 1.03653 0.000976562 0.732304L0.0917266 0.283839H6.69173C7.53298 0.283839 8.28923 0.862096 8.48023 1.86198L10.1135 10.8158L14.1497 0.283839H18.2247ZM34.2895 10.7067C34.306 6.62248 28.8175 6.39747 28.8552 4.5729C28.867 4.01761 29.3802 3.42723 30.5005 3.27628C31.0562 3.20119 32.5875 3.1439 34.3255 3.96884L35.0067 0.687406C34.0717 0.335446 32.871 0 31.377 0C27.5432 0 24.8452 2.1035 24.8225 5.11555C24.7975 7.34343 26.7475 8.58664 28.2175 9.32695C29.7292 10.0851 30.2365 10.5722 30.2307 11.2503C30.22 12.2887 29.0252 12.7469 27.9082 12.7648C25.9582 12.7957 24.8277 12.2203 23.9257 11.7876L23.2227 15.1779C24.129 15.607 25.8017 15.9814 27.5362 16C31.6112 16 34.2765 13.9228 34.289 10.7054L34.2895 10.7067ZM44.4125 15.7582H47.9997L44.8685 0.283839H41.5575C41.2039 0.280764 40.8576 0.387346 40.5634 0.589777C40.2692 0.792207 40.0407 1.08116 39.9075 1.41919L34.0865 15.7582H38.1592L38.968 13.4465H43.943L44.4125 15.7582ZM40.0847 10.2747L42.1262 4.46401L43.3012 10.2745L40.0847 10.2747ZM23.7662 0.283839L20.559 15.7582H16.6805L19.889 0.283839H23.7662Z" fill="#1434CB"/>
</svg>
