<svg width="65" height="10" viewBox="0 0 65 10" fill="none" xmlns="http://www.w3.org/2000/svg">
  <path fill-rule="evenodd" clip-rule="evenodd" d="M32.8371 1.49999C32.3671 1.49999 31.9036 1.5028 31.4465 1.50832C31.1923 1.51139 30.9838 1.29003 30.981 1.01391C30.9782 0.737788 31.182 0.511458 31.4363 0.508389C31.8968 0.502832 32.3637 0.5 32.8371 0.5C33.3106 0.5 33.7775 0.502832 34.238 0.508389C34.4923 0.511458 34.6961 0.737788 34.6933 1.01391C34.6905 1.29003 34.482 1.51139 34.2278 1.50832C33.7707 1.5028 33.3072 1.49999 32.8371 1.49999ZM29.1423 1.05908C29.1511 1.33505 28.9522 1.56654 28.6981 1.57611C27.7511 1.61179 26.8346 1.65947 25.9476 1.71803C25.6937 1.73479 25.4755 1.52493 25.46 1.2493C25.4446 0.973667 25.6378 0.736639 25.8917 0.719882C26.7868 0.660784 27.7114 0.612691 28.6662 0.57672C28.9203 0.567146 29.1335 0.783106 29.1423 1.05908ZM36.532 1.05908C36.5408 0.783106 36.754 0.567146 37.0081 0.57672C37.9629 0.612691 38.8875 0.660784 39.7826 0.719882C40.0365 0.736639 40.2297 0.973667 40.2143 1.2493C40.1988 1.52493 39.9806 1.73479 39.7268 1.71803C38.8397 1.65947 37.9232 1.61179 36.9762 1.57611C36.7221 1.56654 36.5232 1.33505 36.532 1.05908ZM23.6152 1.39948C23.638 1.67451 23.4511 1.91752 23.1979 1.94226C22.2512 2.03474 21.3424 2.13996 20.47 2.25619C20.2176 2.28982 19.9879 2.0949 19.9569 1.82081C19.9259 1.54673 20.1055 1.29727 20.3578 1.26364C21.2403 1.14607 22.159 1.03972 23.1154 0.946291C23.3686 0.921548 23.5924 1.12445 23.6152 1.39948ZM42.0591 1.39948C42.0819 1.12445 42.3057 0.921548 42.5589 0.946291C43.5153 1.03972 44.434 1.14607 45.3165 1.26364C45.5688 1.29728 45.7484 1.54673 45.7174 1.82081C45.6864 2.0949 45.4567 2.28982 45.2043 2.25619C44.3319 2.13996 43.4231 2.03474 42.4764 1.94226C42.2232 1.91752 42.0363 1.67451 42.0591 1.39948ZM18.1255 2.10089C18.1658 2.37355 17.9949 2.63001 17.7438 2.67372C16.7928 2.83925 15.8922 3.01791 15.0398 3.20675C14.7906 3.26194 14.5474 3.08735 14.4966 2.81678C14.4458 2.54622 14.6066 2.28213 14.8557 2.22693C15.7211 2.03522 16.6345 1.85404 17.598 1.68633C17.8491 1.64262 18.0853 1.82823 18.1255 2.10089ZM47.5488 2.10089C47.589 1.82823 47.8252 1.64262 48.0763 1.68633C49.0398 1.85404 49.9532 2.03522 50.8186 2.22694C51.0677 2.28213 51.2285 2.54622 51.1777 2.81678C51.1269 3.08735 50.8837 3.26194 50.6345 3.20675C49.7821 3.01791 48.8815 2.83925 47.9305 2.67372C47.6794 2.63001 47.5085 2.37355 47.5488 2.10089ZM12.6987 3.26348C12.7618 3.531 12.6132 3.80338 12.3668 3.87187C11.4192 4.13536 10.545 4.40994 9.74008 4.68961C9.49788 4.77376 9.23873 4.62876 9.16124 4.36575C9.08375 4.10275 9.21727 3.82132 9.45947 3.73718C10.2821 3.45136 11.1736 3.17137 12.1384 2.90313C12.3848 2.83464 12.6356 2.99597 12.6987 3.26348ZM52.9756 3.26348C53.0387 2.99597 53.2895 2.83464 53.5359 2.90313C54.5007 3.17137 55.3922 3.45136 56.2148 3.73718C56.457 3.82132 56.5905 4.10275 56.5131 4.36575C56.4356 4.62876 56.1764 4.77376 55.9342 4.68961C55.1293 4.40994 54.2551 4.13536 53.3075 3.87187C53.0611 3.80338 52.9125 3.531 52.9756 3.26348ZM62.081 4.31064C62.311 3.97309 62.8268 4.03887 62.9648 4.42335L64.6069 8.99994L60.1635 8.57241C59.8067 8.53807 59.6009 8.15037 59.7724 7.83553L60.4337 6.62135C59.8667 6.32013 59.2272 6.00833 58.5091 5.69411C58.2733 5.5909 58.1591 5.2996 58.2542 5.04347C58.3492 4.78734 58.6174 4.66338 58.8533 4.7666C59.6786 5.12775 60.4059 5.48704 61.0434 5.83316L62.081 4.31064ZM7.42015 5.04347C7.5152 5.2996 7.40104 5.5909 7.16519 5.69411C6.20784 6.11305 5.39007 6.52769 4.69757 6.91869C4.47195 7.04608 4.19396 6.95073 4.07665 6.70573C3.95934 6.46073 4.04714 6.15885 4.27276 6.03146C4.99215 5.62527 5.83686 5.19726 6.82099 4.7666C7.05685 4.66338 7.3251 4.78734 7.42015 5.04347ZM2.49599 7.74228C2.64561 7.96556 2.60021 8.27828 2.3946 8.44076C2.03543 8.72458 1.78379 8.95449 1.62463 9.11021C1.54504 9.18808 1.48855 9.24743 1.45326 9.28573C1.43562 9.30488 1.42327 9.31877 1.416 9.32709L1.40889 9.33528C1.23847 9.54011 0.947521 9.55607 0.75882 9.37106C0.570075 9.18601 0.555209 8.86984 0.725616 8.66488L1.06737 8.99994C0.725616 8.66488 0.725616 8.66488 0.725616 8.66488L0.726828 8.66342L0.728505 8.66143L0.733262 8.65582L0.748467 8.63823C0.761164 8.62373 0.779016 8.6037 0.802258 8.57847C0.848745 8.52801 0.916781 8.45676 1.00824 8.36728C1.19118 8.1883 1.4677 7.93647 1.85278 7.63218C2.05839 7.46971 2.34636 7.519 2.49599 7.74228Z" fill="#979F9F"/>
</svg>
